<svg width="250" height="250" viewBox="0 0 250 250" fill="none" xmlns="http://www.w3.org/2000/svg">
<circle cx="125" cy="125" r="122" stroke="white" stroke-width="6"/>
<g clip-path="url(#clip0_37_185)">
<path d="M168.75 100.162H100.92L98.4595 89.1368C94.2652 73.495 101.547 57.9008 118.215 53.4358C134.712 49.0183 149.251 58.4755 153.517 74.3833L155.536 82.3918C156.215 84.9283 158.818 86.4293 161.354 85.75C163.891 85.0708 165.392 82.4678 164.712 79.9313L162.694 71.918C157.056 50.8613 137.4 38.4543 115.759 44.254C94.0325 50.0775 83.7392 70.8873 89.2872 91.5925L91.1968 100.157H83.25C72.7715 100.157 64.25 108.678 64.25 119.157V176.157C64.25 186.635 72.7715 195.157 83.25 195.157H168.75C179.229 195.157 187.75 186.635 187.75 176.157V119.157C187.75 108.678 179.229 100.157 168.75 100.157V100.162ZM178.25 176.166C178.25 181.401 173.984 185.666 168.75 185.666H83.25C78.0107 185.666 73.75 181.401 73.75 176.166V119.166C73.75 113.932 78.0107 109.666 83.25 109.666H168.75C173.984 109.666 178.25 113.932 178.25 119.166V176.166ZM126 128.666C120.756 128.666 116.5 132.918 116.5 138.166C116.5 141.672 118.424 144.702 121.25 146.351V161.916C121.25 164.538 123.378 166.666 126 166.666C128.622 166.666 130.75 164.538 130.75 161.916V146.351C133.576 144.707 135.5 141.672 135.5 138.166C135.5 132.918 131.249 128.666 126 128.666Z" fill="white"/>
</g>
<defs>
<clipPath id="clip0_37_185">
<rect width="152" height="152" fill="white" transform="translate(50 43)"/>
</clipPath>
</defs>
</svg>
