<svg width="250" height="250" viewBox="0 0 250 250" fill="none" xmlns="http://www.w3.org/2000/svg">
<circle cx="125" cy="125" r="122" stroke="white" stroke-width="6"/>
<path d="M78 92.6C78.6667 79.2667 83.3333 69 92 61.8C100.8 54.4667 112.333 50.8 126.6 50.8C136.333 50.8 144.667 52.5333 151.6 56C158.533 59.3333 163.733 63.9333 167.2 69.8C170.8 75.5333 172.6 82.0667 172.6 89.4C172.6 97.8 170.4 104.933 166 110.8C161.733 116.533 156.6 120.4 150.6 122.4V123.2C158.333 125.6 164.333 129.867 168.6 136C173 142.133 175.2 150 175.2 159.6C175.2 167.6 173.333 174.733 169.6 181C166 187.267 160.6 192.2 153.4 195.8C146.333 199.267 137.8 201 127.8 201C112.733 201 100.467 197.2 91 189.6C81.5333 182 76.5333 170.8 76 156H103.2C103.467 162.533 105.667 167.8 109.8 171.8C114.067 175.667 119.867 177.6 127.2 177.6C134 177.6 139.2 175.733 142.8 172C146.533 168.133 148.4 163.2 148.4 157.2C148.4 149.2 145.867 143.467 140.8 140C135.733 136.533 127.867 134.8 117.2 134.8H111.4V111.8H117.2C136.133 111.8 145.6 105.467 145.6 92.8C145.6 87.0667 143.867 82.6 140.4 79.4C137.067 76.2 132.2 74.6 125.8 74.6C119.533 74.6 114.667 76.3333 111.2 79.8C107.867 83.1333 105.933 87.4 105.4 92.6H78Z" fill="white"/>
</svg>
