<svg width="250" height="250" viewBox="0 0 250 250" fill="none" xmlns="http://www.w3.org/2000/svg">
<circle cx="125" cy="125" r="122" stroke="white" stroke-width="6"/>
<path d="M86.4 168.4C99.2 157.733 109.4 148.867 117 141.8C124.6 134.6 130.933 127.133 136 119.4C141.067 111.667 143.6 104.067 143.6 96.6C143.6 89.8 142 84.4667 138.8 80.6C135.6 76.7333 130.667 74.8 124 74.8C117.333 74.8 112.2 77.0667 108.6 81.6C105 86 103.133 92.0667 103 99.8H75.8C76.3333 83.8 81.0667 71.6667 90 63.4C99.0667 55.1333 110.533 51 124.4 51C139.6 51 151.267 55.0667 159.4 63.2C167.533 71.2 171.6 81.8 171.6 95C171.6 105.4 168.8 115.333 163.2 124.8C157.6 134.267 151.2 142.533 144 149.6C136.8 156.533 127.4 164.933 115.8 174.8H174.8V198H76V177.2L86.4 168.4Z" fill="white"/>
</svg>
