<svg width="250" height="250" viewBox="0 0 250 250" fill="none" xmlns="http://www.w3.org/2000/svg">
<circle cx="125" cy="125" r="122" stroke="white" stroke-width="6"/>
<g clip-path="url(#clip0_37_84)">
<path d="M124.995 48.981C90.971 48.981 63.2927 78.6542 63.2927 115.125V196.274C63.2927 198.235 64.504 199.998 66.3327 200.705C66.8837 200.924 67.468 201.024 68.0427 201.024C69.3585 201.024 70.6457 200.477 71.5625 199.461L89.4605 179.701L103.478 199.062C104.366 200.287 105.781 201.014 107.292 201.024H107.325C108.826 201.024 110.242 200.316 111.135 199.105L125.209 180.2L139.041 199.076C139.939 200.297 141.359 201.019 142.874 201.019C144.389 201.019 145.81 200.302 146.707 199.081L160.891 179.739L178.409 199.428C179.72 200.895 181.815 201.413 183.643 200.71C185.482 200.007 186.707 198.24 186.707 196.274V115.125C186.707 78.6542 159.024 48.981 125 48.981H124.995ZM177.202 183.786L164.078 169.037C163.123 167.964 161.732 167.356 160.307 167.451C158.872 167.522 157.547 168.23 156.697 169.384L142.874 188.237L129.066 169.398C128.173 168.182 126.762 167.46 125.256 167.455H125.237C123.736 167.455 122.321 168.163 121.428 169.374L107.373 188.251L93.7165 169.389C92.8757 168.23 91.56 167.512 90.1302 167.436C90.0447 167.432 89.9592 167.427 89.8737 167.427C88.539 167.427 87.2565 167.992 86.354 168.99L72.788 183.957V115.129C72.788 83.8982 96.2055 58.4857 124.99 58.4857C153.775 58.4857 177.198 83.8935 177.198 115.129V183.795L177.202 183.786ZM148.75 101.274C143.515 101.274 139.274 105.515 139.274 110.745C139.274 115.975 143.511 120.221 148.75 120.221C153.989 120.221 158.226 115.98 158.226 110.745C158.226 105.515 153.989 101.274 148.75 101.274ZM101.25 101.274C96.0107 101.274 91.7737 105.515 91.7737 110.745C91.7737 115.975 96.0155 120.221 101.25 120.221C106.484 120.221 110.726 115.98 110.726 110.745C110.726 105.515 106.484 101.274 101.25 101.274Z" fill="white"/>
</g>
<defs>
<clipPath id="clip0_37_84">
<rect width="152" height="152" fill="white" transform="translate(49 49)"/>
</clipPath>
</defs>
</svg>
