<svg width="250" height="250" viewBox="0 0 250 250" fill="none" xmlns="http://www.w3.org/2000/svg">
<circle cx="125" cy="125" r="122" stroke="white" stroke-width="6"/>
<path d="M162.6 78.4H97.8V112.6C100.6 109.133 104.6 106.333 109.8 104.2C115 101.933 120.533 100.8 126.4 100.8C137.067 100.8 145.8 103.133 152.6 107.8C159.4 112.467 164.333 118.467 167.4 125.8C170.467 133 172 140.733 172 149C172 164.333 167.6 176.667 158.8 186C150.133 195.333 137.733 200 121.6 200C106.4 200 94.2667 196.2 85.2 188.6C76.1333 181 71 171.067 69.8 158.8H97C98.2 164.133 100.867 168.4 105 171.6C109.267 174.8 114.667 176.4 121.2 176.4C129.067 176.4 135 173.933 139 169C143 164.067 145 157.533 145 149.4C145 141.133 142.933 134.867 138.8 130.6C134.8 126.2 128.867 124 121 124C115.4 124 110.733 125.4 107 128.2C103.267 131 100.6 134.733 99 139.4H72.2V53.8H162.6V78.4Z" fill="white"/>
</svg>
