<svg width="250" height="250" viewBox="0 0 250 250" fill="none" xmlns="http://www.w3.org/2000/svg">
<circle cx="125" cy="125" r="122" stroke="white" stroke-width="6"/>
<path fill-rule="evenodd" clip-rule="evenodd" d="M130.466 67.4918C130.441 63.9941 127.586 61.1786 124.088 61.2033C120.59 61.2281 117.775 64.0836 117.799 67.5813L118.202 124.58C118.227 128.078 121.082 130.893 124.58 130.868C128.078 130.844 130.893 127.988 130.868 124.49L130.466 67.4918ZM102.787 85.8924C105.833 84.1737 106.909 80.3107 105.191 77.2644C103.472 74.2179 99.609 73.1416 96.5625 74.8604C79.1246 84.6984 67.385 103.469 67.5367 124.938C67.7592 156.418 93.4587 181.756 124.938 181.534C156.418 181.311 181.756 155.612 181.534 124.132C181.385 103.027 169.78 84.6898 152.69 74.9643C149.65 73.2343 145.783 74.2963 144.053 77.3363C142.324 80.3763 143.385 84.2432 146.426 85.9732C159.747 93.5543 168.752 107.821 168.868 124.222C169.041 148.706 149.333 168.694 124.849 168.867C100.365 169.04 80.3761 149.332 80.2031 124.848C80.0852 108.166 89.1948 93.5606 102.787 85.8924Z" fill="white"/>
</svg>
