<svg width="250" height="250" viewBox="0 0 250 250" fill="none" xmlns="http://www.w3.org/2000/svg">
<circle cx="125" cy="125" r="122" stroke="white" stroke-width="6"/>
<path d="M120.963 82.1402C121.252 90.7199 122.031 165.666 121.151 170.879C120.358 175.574 117.322 184.054 111.523 184.944C105.725 185.834 101.963 181.524 100.222 180.959C98.4822 180.395 93.6716 183.303 89.8688 180.734C86.066 178.164 86.8991 171.437 85.8376 170.295C84.776 169.152 78.8904 170.5 76.0685 166.649C73.2466 162.797 75.699 158.68 74.8054 157.564C73.9118 156.449 65.2177 155.439 63.9882 146.441C62.5907 136.115 70.969 134.096 70.9219 132.489C70.8749 130.882 63.9747 122.097 67.4685 111.299C70.9622 100.502 80.1535 99.3461 80.691 98.3765C81.2285 97.407 77.0226 91.457 82.5588 82.8773C88.0951 74.2976 96.0837 76.6152 97.2191 75.8515C98.3546 75.0879 97.0243 71.7078 100.874 66.9199C104.428 62.4973 111.228 61.4082 116.139 64.2039C120.594 66.7672 120.674 73.5605 120.963 82.1402Z" fill="#191919"/>
<path d="M109.931 190.382C104.838 190.382 101.143 187.879 99.0265 186.444L98.9727 186.411L98.7241 186.464C96.124 187.055 91.2797 188.151 86.8386 185.136C82.8477 182.44 81.8332 177.991 81.3561 174.83C78.5275 174.471 74.4829 173.535 71.7349 169.783C69.8738 167.189 69.0309 164.015 69.3632 160.852C59.9569 156.323 59.0297 149.728 58.6804 147.159C57.4844 138.473 61.5157 133.725 64.4854 131.188C62.4697 126.858 59.3791 118.876 62.3488 109.685C63.2823 106.597 64.8508 103.733 66.9561 101.272C69.0614 98.8104 71.6581 96.8052 74.5836 95.3816C73.9588 91.8289 73.9118 86.3968 78.0236 80.0218C82.7268 72.7769 89.0222 71.2296 92.9729 70.8777C93.6489 68.2262 94.9084 65.7547 96.6615 63.6394C101.801 57.2511 111.53 55.4847 118.833 59.655C125.727 63.5531 126.016 72.1062 126.311 81.164V81.9742C126.526 88.3359 127.467 165.646 126.432 171.762C125.136 179.472 120.661 188.928 112.323 190.21C111.531 190.327 110.732 190.385 109.931 190.382ZM99.705 175.614C100.422 175.608 101.136 175.711 101.821 175.919C103 176.335 104.105 176.929 105.1 177.679C107.116 179.053 108.715 180.003 110.704 179.671C112.524 179.392 115.078 174.591 115.857 169.982C116.609 164.55 115.917 91.882 115.595 82.2929V81.4761C115.42 76.2699 115.212 69.7886 113.485 68.8058C110.798 67.2718 106.955 67.9226 105.107 70.2203C103.989 71.5129 103.312 73.1209 103.172 74.8156C102.977 76.1835 102.621 78.7269 100.175 80.314C98.6233 81.3234 97.031 81.3499 95.6268 81.3765C93.0468 81.423 89.8352 81.4894 87.094 85.7328C84.1847 90.2417 85.0783 93.3628 85.6427 95.4281C86.0257 96.7894 86.6035 98.848 85.3807 100.993C84.3527 102.793 82.7469 103.45 81.3494 104.028C78.8232 105.064 74.6307 106.797 72.615 112.919C70.5994 119.248 73.2869 124.753 74.9061 128.04C75.7057 129.66 76.2835 130.836 76.3238 132.343C76.4111 135.498 74.1066 137.244 72.7293 138.32C70.7136 139.874 68.7518 141.335 69.3699 145.791C69.8604 149.383 72.2052 150.612 75.2219 151.847C76.606 152.411 78.0304 152.996 79.1188 154.384C80.8186 156.562 80.4625 158.979 80.261 160.579C80.0594 162.18 79.9922 162.93 80.4827 163.601C80.8925 164.159 82.6797 164.338 83.8421 164.451C85.7435 164.637 88.1152 164.869 89.889 166.815C91.3402 168.415 91.6022 170.314 91.9046 172.326C92.039 173.309 92.395 175.912 92.9729 176.417C93.5238 176.789 95.2371 176.417 96.3725 176.138C97.46 175.841 98.5779 175.665 99.705 175.614Z" fill="#A3A2A2"/>
<path d="M126.882 80.3804C126.432 89.0132 125.619 164.331 126.412 169.584C127.124 174.312 128.428 179.611 135.543 183.025C140.918 185.601 146.037 181.411 147.724 180.866C149.41 180.322 153.442 181.046 157.345 178.522C161.249 175.999 162.949 170.354 164.01 169.763C165.072 169.172 170.212 169.684 173.148 165.852C176.084 162.02 173.685 158.023 174.021 156.774C174.357 155.526 182.03 154.051 183.468 145.864C185.241 135.79 176.937 133.074 176.709 131.712C176.48 130.351 182.944 125.576 180.935 116.074C178.738 105.694 171.938 104.459 171.421 103.178C170.904 101.896 174.888 98.6155 172.818 92.6855C170.749 86.7554 165.428 86.8882 164.648 85.6066C163.869 84.3249 165.77 81.0976 162.512 77.1132C159.119 72.9628 152.232 75.0612 151.09 74.4569C149.948 73.8527 149.975 69.7089 146.031 65.5784C142.94 62.3444 136.201 60.671 131.727 64.4296C127.756 67.7499 127.359 71.7609 126.882 80.3804Z" fill="#191919"/>
<path d="M139.144 189.167C137.078 189.17 135.038 188.702 133.185 187.799C122.979 182.885 121.702 174.425 121.091 170.361C120.177 164.325 121.091 87.6187 121.507 80.0949C121.937 71.8605 122.28 65.3593 128.226 60.3589C134.945 54.7277 144.862 56.6136 149.921 61.9062C151.914 63.9938 153.471 66.4489 154.503 69.1312C157.903 69.0449 163.123 69.4234 166.678 73.7796C168.706 76.1724 169.836 79.1846 169.876 82.3062C171.753 83.1033 173.438 84.2848 174.82 85.7729C176.202 87.261 177.249 89.0218 177.891 90.939C179.106 94.261 179.089 97.9011 177.844 101.212C180.693 103.33 184.563 107.268 186.182 114.971C187.378 120.342 186.427 125.962 183.528 130.657C186.464 133.393 190.247 138.406 188.749 146.767C187.499 153.846 182.863 157.452 179.819 159.304C180.104 161.004 180.037 162.744 179.624 164.418C179.211 166.092 178.459 167.666 177.414 169.046C174.303 173.11 169.896 174.119 167.228 174.538C165.965 176.862 163.869 180.621 160.268 182.952C156.371 185.468 152.501 185.727 150.19 185.88L149.357 185.94L148.826 186.219C146.992 187.241 143.417 189.167 139.144 189.167ZM137.861 67.5773C136.886 67.5426 135.931 67.8588 135.173 68.4671C133.111 70.1937 132.674 72.0199 132.217 80.6527C131.76 89.2855 131.041 163.508 131.727 168.82C132.338 172.891 133.144 175.966 137.894 178.25C139.52 179.034 141.482 178.11 143.693 176.922C144.445 176.484 145.236 176.117 146.058 175.826C147.171 175.512 148.32 175.338 149.478 175.308C151.137 175.195 152.837 175.082 154.396 174.086C155.786 173.19 157.023 170.905 157.849 169.398C158.81 167.632 159.636 166.078 161.376 165.141C162.454 164.602 163.627 164.275 164.83 164.178C166.644 163.926 168.095 163.654 168.861 162.658C169.378 161.994 169.338 161.33 168.962 159.596C168.565 158.23 168.522 156.787 168.834 155.4C169.506 152.909 171.468 151.82 173.04 150.95C175.607 149.523 177.616 148.175 178.18 144.974C178.966 140.491 176.836 138.838 174.753 137.244C173.51 136.288 171.811 134.973 171.394 132.596C170.978 130.218 172.234 128.319 173.235 126.865C174.68 124.773 176.662 121.904 175.66 117.176C174.478 111.578 171.844 109.958 169.929 108.776C168.707 108.025 167.188 107.089 166.415 105.143C165.381 102.56 166.476 100.322 167.128 98.9808C167.84 97.5199 168.404 96.3644 167.726 94.4253C167.128 92.7121 166.167 92.2539 164.366 91.5367C163.023 90.9988 161.168 90.255 160.006 88.3292C159.192 86.8391 158.871 85.1349 159.085 83.455C159.159 82.18 159.193 81.5425 158.313 80.4667C157.641 79.6101 154.953 79.7562 153.515 79.8027C151.795 79.8957 150.156 79.9886 148.503 79.0921C146.253 77.8835 145.513 75.825 144.922 74.1648C144.384 72.3275 143.434 70.634 142.141 69.2109C140.969 68.1641 139.447 67.5823 137.868 67.5773H137.861Z" fill="#A3A2A2"/>
<path d="M120.963 82.1402C121.252 90.7199 122.031 165.666 121.151 170.879C120.358 175.574 117.322 184.054 111.523 184.944C105.725 185.834 101.963 181.524 100.222 180.959C98.4822 180.395 93.6716 183.303 89.8688 180.734C86.066 178.164 86.8991 171.437 85.8376 170.295C84.776 169.152 78.8904 170.5 76.0685 166.649C73.2466 162.797 75.699 158.68 74.8054 157.564C73.9118 156.449 65.2177 155.439 63.9882 146.441C62.5907 136.115 70.969 134.096 70.9219 132.489C70.8749 130.882 63.9747 122.097 67.4685 111.299C70.9622 100.502 80.1535 99.3461 80.691 98.3765C81.2285 97.407 77.0226 91.457 82.5588 82.8773C88.0951 74.2976 96.0837 76.6152 97.2191 75.8515C98.3546 75.0879 97.0243 71.7078 100.874 66.9199C104.428 62.4973 111.228 61.4082 116.139 64.2039C120.594 66.7672 120.674 73.5605 120.963 82.1402Z" fill="white"/>
<path d="M126.882 80.3805C126.432 89.0133 125.619 164.331 126.412 169.584C127.124 174.312 128.428 179.611 135.543 183.025C140.918 185.601 146.037 181.411 147.724 180.866C149.41 180.322 153.442 181.046 157.345 178.522C161.249 175.999 162.949 170.354 164.01 169.763C165.072 169.172 170.212 169.684 173.148 165.852C176.084 162.02 173.685 158.023 174.021 156.774C174.357 155.526 182.03 154.052 183.468 145.864C185.241 135.79 176.937 133.074 176.709 131.713C176.48 130.351 182.944 125.577 180.935 116.074C178.738 105.695 171.938 104.459 171.421 103.178C170.904 101.896 174.888 98.6157 172.818 92.6856C170.749 86.7555 165.428 86.8883 164.648 85.6067C163.869 84.325 165.77 81.0977 162.512 77.1133C159.119 72.9629 152.232 75.0614 151.09 74.4571C149.948 73.8528 149.975 69.709 146.031 65.5786C142.94 62.3446 136.201 60.6711 131.727 64.4297C127.756 67.75 127.359 71.761 126.882 80.3805Z" fill="white"/>
<path d="M140.232 88.4688C137.209 86.377 105.45 118.245 106.471 120.855C107.492 123.465 117.846 123.312 119.236 124.899C120.627 126.486 107.989 154.43 110.334 156.243C112.094 157.571 143.814 126.872 143.343 124.116C142.873 121.36 134.367 121.878 132.506 120.131C130.645 118.385 142.396 89.9762 140.232 88.4688Z" fill="#E83A2A"/>
<path d="M45.4915 135.73C46.9494 135.73 55.8988 133.373 57.3635 132.483C58.8282 131.593 57.0948 126.566 55.9727 126.34C54.8507 126.114 45.3907 128.817 44.1007 129.588C42.8107 130.358 44.0469 135.75 45.4915 135.73Z" fill="white"/>
<path d="M43.6168 103.038C42.4746 101.883 44.0065 97.4336 45.7466 97.4137C47.4868 97.3938 55.7912 100.13 56.8124 101.086C57.8337 102.042 56.631 106.511 54.6826 106.711C52.7341 106.91 44.8732 104.307 43.6168 103.038Z" fill="white"/>
<path d="M61.1797 82.6383C60.4473 81.1907 63.2893 77.4254 64.9489 77.9301C66.6084 78.4348 70.25 81.1641 70.8547 82.366C71.4593 83.568 69.0003 87.4727 67.0854 87.0743C65.1706 86.6758 61.9859 84.2188 61.1797 82.6383Z" fill="white"/>
<path d="M54.1251 168.495C52.4924 168.415 50.5574 164.125 51.8138 162.937C53.0702 161.748 57.1888 159.968 58.6199 160.015C60.051 160.061 62.2212 164.112 60.9312 165.573C59.6412 167.034 55.8921 168.575 54.1251 168.495Z" fill="white"/>
<path d="M200.406 107.321C199.304 107.209 193.163 108.563 191.994 109.314C190.825 110.064 192.585 115.064 193.411 115.383C194.238 115.702 200.802 114.055 201.823 113.391C202.845 112.727 201.508 107.434 200.406 107.321Z" fill="white"/>
<path d="M185.718 96.7364C184.086 96.6766 182.104 92.4067 183.353 91.2047C184.603 90.0028 192.531 86.3438 193.929 86.3836C195.326 86.4235 197.671 90.2551 196.394 91.6961C195.118 93.1371 187.512 96.7961 185.718 96.7364Z" fill="white"/>
<path d="M205.969 132.297C207.353 133.154 206.916 137.835 205.23 138.273C203.543 138.712 194.822 137.961 193.626 137.238C192.43 136.514 192.518 131.925 194.365 131.261C196.213 130.597 204.45 131.347 205.969 132.297Z" fill="white"/>
<path d="M197.987 155.957C199.143 157.1 197.637 161.562 195.897 161.595C194.157 161.628 190.173 160.148 189.179 159.178C188.184 158.209 189.32 153.753 191.268 153.54C193.217 153.328 196.717 154.702 197.987 155.957Z" fill="white"/>
</svg>
